<?xml version="1.0" standalone="no"?>
<!DOCTYPE svg PUBLIC "-//W3C//DTD SVG 20010904//EN"
 "http://www.w3.org/TR/2001/REC-SVG-20010904/DTD/svg10.dtd">
<svg version="1.0" xmlns="http://www.w3.org/2000/svg"
 width="763.000000pt" height="763.000000pt" viewBox="0 0 763.000000 763.000000"
 preserveAspectRatio="xMidYMid meet">
<metadata>
Created by potrace 1.11, written by Peter Selinger 2001-2013
</metadata>
<g transform="translate(0.000000,763.000000) scale(0.100000,-0.100000)"
fill="#000000" stroke="none">
<path d="M3125 6814 c-10 -8 -15 -14 -9 -14 5 0 4 -4 -3 -8 -6 -4 -14 -37 -18
-72 -8 -98 -14 -129 -25 -151 -18 -32 -20 -150 -4 -186 25 -58 115 -84 199
-58 38 12 37 15 -12 20 -25 3 -82 37 -106 63 -22 24 -24 93 -4 149 9 22 13 44
10 47 -4 3 -2 6 3 6 5 0 10 9 11 21 3 29 30 69 48 69 42 0 126 -77 175 -160
22 -37 50 -104 64 -155 13 -49 25 -85 26 -80 2 16 7 39 19 95 11 50 10 54 -29
129 -44 85 -75 121 -165 195 -33 27 -64 55 -70 61 -29 34 -83 48 -110 29z"/>
<path d="M4303 6605 c-23 -16 -96 -160 -112 -223 -14 -52 -8 -124 17 -184 13
-32 74 -74 117 -82 17 -3 40 -7 53 -10 12 -3 22 -4 22 -2 0 1 -19 23 -41 47
-79 84 -96 114 -94 161 1 24 15 68 30 98 33 67 26 59 63 66 28 6 36 1 81 -45
100 -103 138 -216 104 -312 -16 -47 -26 -139 -15 -139 14 0 46 44 60 85 16 43
26 235 14 245 -4 3 -13 16 -20 30 -14 29 -25 46 -107 165 -32 48 -68 93 -79
101 -27 18 -66 18 -93 -1z"/>
<path d="M2135 6528 c-11 -6 -21 -12 -23 -13 -3 -2 -67 -239 -77 -283 -14 -66
-8 -136 15 -190 25 -59 91 -122 126 -122 13 0 34 -4 48 -10 42 -15 32 9 -29
73 -30 32 -62 73 -69 92 -15 36 -14 115 3 173 5 17 8 32 5 32 -11 0 28 60 50
77 91 72 282 -64 310 -221 7 -39 15 -42 21 -9 2 10 4 18 5 18 1 0 3 9 5 20 10
70 8 82 -28 136 -34 52 -119 140 -124 129 -1 -3 -13 4 -25 15 -13 10 -25 19
-28 18 -8 -1 -46 15 -107 46 -47 23 -63 27 -78 19z"/>
<path d="M1352 6249 c-13 -51 -6 -129 17 -182 11 -26 20 -50 20 -54 0 -3 3 -9
8 -12 11 -8 53 -68 53 -76 0 -3 10 -16 23 -29 12 -13 36 -38 53 -57 16 -19 52
-52 78 -74 27 -22 57 -47 67 -56 29 -25 13 -51 -54 -89 -34 -19 -65 -33 -69
-32 -5 1 -8 -2 -8 -7 0 -5 -10 -13 -21 -16 -12 -4 -42 -20 -67 -36 -25 -16
-49 -26 -53 -23 -5 3 -9 1 -9 -4 0 -5 -16 -17 -35 -28 -19 -10 -35 -22 -35
-27 0 -4 -4 -6 -9 -3 -5 4 -11 3 -13 -1 -5 -13 -127 -105 -204 -156 -74 -48
-138 -107 -186 -168 -15 -19 -41 -50 -58 -69 -17 -19 -54 -80 -81 -136 -64
-126 -134 -212 -205 -250 -50 -27 -56 -66 -11 -78 77 -21 150 3 236 76 24 21
52 38 62 38 10 0 32 -20 49 -45 50 -72 76 -58 83 45 6 82 19 129 57 208 74
154 212 325 320 399 99 67 259 140 274 125 3 -3 6 -1 6 5 0 9 49 25 85 28 6 0
15 3 20 6 25 15 161 9 243 -11 48 -12 94 -24 102 -27 8 -3 20 -7 25 -8 86 -20
266 -92 278 -112 4 -7 14 -13 21 -13 21 0 116 -101 116 -122 0 -22 -143 -165
-226 -227 -34 -25 -31 -24 -254 -22 -63 0 -128 -1 -145 -3 -16 -2 -57 -7 -91
-10 -33 -4 -73 -9 -90 -12 -16 -3 -42 -7 -59 -9 -36 -3 -112 -22 -140 -35
-126 -56 -283 -139 -311 -165 -6 -5 -28 -23 -48 -39 -49 -39 -96 -88 -156
-166 -78 -99 -103 -130 -168 -198 -33 -35 -68 -80 -78 -100 -11 -20 -22 -39
-27 -40 -4 -2 -5 -8 -1 -13 6 -11 -31 -74 -62 -106 -41 -41 -125 -77 -184 -79
-66 -2 -77 2 -83 27 -4 13 7 34 31 62 100 115 161 177 175 177 4 0 24 11 44
25 20 13 40 22 45 19 4 -3 8 0 8 5 0 6 -1 11 -2 12 -2 0 -24 3 -50 6 -74 8
-106 -9 -188 -99 -126 -137 -153 -156 -223 -154 -20 1 -37 -1 -37 -5 0 -3 19
-23 43 -45 95 -87 126 -99 242 -99 97 1 145 21 218 89 53 51 77 100 86 178 2
19 166 158 186 158 3 0 16 9 28 21 64 60 377 243 377 221 0 -4 4 -2 8 4 6 9
107 49 150 59 9 3 35 9 57 15 310 79 653 21 976 -167 75 -43 83 -46 112 -35
17 6 32 10 34 9 1 -2 5 -34 7 -73 6 -93 13 -133 31 -183 8 -23 15 -43 15 -46
7 -39 55 -134 123 -245 49 -79 53 -94 62 -205 3 -38 8 -78 11 -89 4 -11 7 -33
9 -50 4 -57 43 -175 83 -251 26 -49 101 -143 135 -169 18 -13 60 -30 94 -37
55 -11 69 -11 117 4 82 26 122 90 63 99 -16 2 -31 21 -53 68 -18 36 -30 67
-29 69 2 1 0 13 -5 26 -5 13 -11 43 -14 67 -3 23 -8 54 -11 68 -3 14 -8 39
-11 55 -11 58 -21 83 -42 108 -8 9 -11 17 -6 17 23 0 -71 52 -118 64 -96 26
-117 37 -134 69 -9 18 -24 46 -32 62 -9 17 -28 48 -44 69 -15 21 -28 48 -28
58 0 11 -4 27 -10 37 -21 40 -61 216 -56 245 3 17 10 74 16 126 11 107 18 148
27 170 8 19 8 20 18 55 9 36 100 212 123 240 10 11 26 36 36 55 11 19 22 37
25 40 3 3 19 23 35 45 55 75 172 205 184 205 5 0 17 8 26 19 9 10 37 21 63 25
25 3 52 11 59 17 7 5 43 13 82 16 l69 6 62 -62 c53 -53 96 -119 106 -165 1 -6
5 -20 9 -31 16 -42 25 -72 37 -123 13 -52 13 -53 30 -31 27 36 21 112 -18 224
-53 155 -53 183 4 170 69 -15 152 -40 176 -52 15 -7 27 -10 27 -6 0 5 4 4 8
-2 4 -5 33 -23 65 -39 32 -15 61 -35 64 -42 3 -8 11 -14 19 -14 8 0 14 -4 14
-8 0 -4 12 -15 28 -24 61 -38 230 -194 249 -233 9 -16 17 -57 19 -90 2 -33 5
-69 7 -80 8 -37 17 -100 21 -147 4 -38 0 -51 -18 -71 -19 -21 -31 -24 -70 -22
-26 2 -59 6 -74 9 -96 21 -144 27 -242 30 -79 3 -282 -15 -340 -30 -14 -3 -32
-7 -40 -9 -8 -2 -51 -13 -95 -24 -44 -12 -87 -23 -95 -25 -8 -3 -28 -10 -45
-16 -16 -6 -39 -14 -49 -16 -36 -7 -52 -42 -35 -75 4 -9 10 -70 13 -135 5
-114 15 -167 50 -262 16 -44 70 -147 88 -169 6 -7 7 -13 2 -13 -5 0 -4 -4 2
-8 13 -8 58 -94 69 -132 10 -33 54 -80 77 -80 21 0 52 44 45 64 -14 35 24 151
75 235 81 131 81 132 84 191 4 79 -34 145 -134 233 -18 15 -36 27 -42 27 -5 0
-10 3 -10 8 0 4 -12 15 -26 25 l-25 18 4 -33 c3 -34 32 -87 54 -101 7 -4 13
-15 13 -22 0 -8 4 -15 8 -15 5 0 15 -12 23 -27 8 -16 18 -31 22 -34 24 -18 13
-159 -12 -159 -3 0 -12 -15 -20 -32 -8 -18 -21 -43 -30 -54 -9 -12 -23 -32
-31 -44 -37 -55 -35 -53 -56 -40 -16 10 -98 158 -99 180 -1 3 -9 29 -19 57
-24 71 -25 107 -8 173 8 30 16 62 17 70 2 8 4 15 5 15 1 0 3 9 5 19 6 31 72
82 119 92 91 20 294 25 409 10 71 -9 164 -38 220 -68 74 -41 84 -57 91 -161 3
-42 8 -87 11 -99 6 -25 12 -74 20 -158 6 -62 13 -128 23 -210 18 -161 -5 -811
-34 -955 -3 -11 -7 -37 -10 -58 -7 -48 -12 -71 -14 -74 -2 -2 -3 -11 -4 -20
-2 -19 -16 -95 -23 -128 -2 -11 -6 -31 -8 -45 -2 -14 -7 -41 -10 -60 -4 -19
-8 -51 -10 -70 -8 -76 -15 -126 -20 -150 -2 -14 -7 -45 -10 -70 -5 -46 -12
-85 -15 -85 -1 0 -3 -11 -6 -24 -2 -14 -11 -44 -19 -67 -17 -49 -52 -186 -59
-229 -3 -16 -7 -48 -11 -70 -8 -61 -13 -84 -20 -95 -3 -6 -1 -10 5 -10 6 0 9
-4 6 -8 -3 -5 -8 -28 -11 -53 -3 -24 -8 -60 -11 -79 -14 -96 -15 -138 -2 -151
7 -8 19 -26 27 -41 11 -21 22 -28 45 -29 85 -4 173 1 219 11 29 6 75 13 102
16 28 2 70 8 95 14 25 5 59 12 75 15 35 7 237 14 508 19 168 3 191 5 215 23
41 30 61 64 68 113 12 90 -2 161 -53 262 -13 27 -23 51 -22 54 0 4 -3 10 -8
13 -17 11 -149 305 -158 350 -2 9 -8 34 -13 56 -6 22 -13 74 -17 117 -3 42 -8
91 -10 110 -3 18 -7 74 -10 123 -3 50 -8 122 -11 160 -2 39 -6 106 -9 150 -8
123 -7 632 1 795 4 80 7 162 8 182 1 21 3 38 6 38 3 0 5 26 6 58 2 183 27 273
105 373 130 166 262 218 345 138 46 -44 69 -136 78 -319 2 -36 7 -106 11 -156
4 -51 5 -103 2 -116 -8 -31 -53 -79 -102 -108 -60 -35 -270 -254 -270 -280 0
-5 -3 -12 -8 -16 -4 -4 -7 -14 -7 -22 0 -8 -16 -37 -36 -64 -57 -80 -37 -97
81 -66 22 5 49 12 60 14 11 2 31 6 45 10 14 3 31 5 38 5 6 -1 18 -1 25 -2 30
-1 140 33 191 60 31 17 72 48 92 68 36 38 70 93 58 93 -4 0 -2 6 4 13 11 14
10 317 -2 357 -4 14 -9 34 -11 45 -9 47 -16 82 -21 105 -3 14 -8 35 -10 46 -2
12 -13 66 -25 120 -11 55 -22 108 -24 119 -48 236 -93 298 -216 302 -75 2
-132 -20 -212 -81 -26 -20 -51 -36 -56 -36 -5 0 -14 -7 -21 -15 -7 -8 -16 -13
-20 -10 -5 3 -10 -1 -13 -7 -3 -10 -7 -10 -20 0 -22 18 -16 143 13 277 13 58
16 142 7 152 -3 2 0 19 6 36 15 44 92 117 171 161 42 24 146 60 146 51 0 -3
12 0 27 6 42 16 190 13 263 -6 36 -8 73 -18 82 -20 39 -9 119 -56 199 -117 68
-53 158 -108 176 -108 5 0 -28 62 -51 95 -25 36 -48 59 -105 105 -24 19 -48
40 -55 46 -56 53 -214 149 -259 158 -7 2 -32 8 -57 15 -75 22 -82 22 -175 21
-130 -1 -159 -8 -273 -62 -35 -17 -80 -32 -100 -35 -67 -7 -82 -13 -112 -45
-24 -25 -30 -27 -27 -12 5 33 29 68 77 114 63 60 109 100 116 100 3 0 12 6 19
13 31 27 44 37 50 37 4 0 25 13 48 29 82 56 224 93 357 93 135 0 328 -39 437
-88 17 -8 34 -14 37 -14 16 0 166 -74 166 -81 0 -5 5 -9 12 -9 10 0 86 -75
131 -130 10 -12 20 -20 23 -18 2 3 -3 31 -11 62 -14 53 -35 93 -73 136 -46 53
-94 100 -136 135 -122 100 -131 118 -85 159 16 14 31 26 34 26 17 0 115 73
120 91 10 31 2 32 -59 15 -31 -9 -59 -16 -62 -15 -4 0 -10 -4 -13 -9 -5 -8
-153 -61 -184 -66 -7 -1 -16 -4 -22 -7 -5 -4 -53 -4 -105 -2 -144 7 -332 7
-360 -1 -14 -3 -38 -9 -55 -11 -70 -13 -205 -57 -205 -67 0 -5 -6 -8 -12 -8
-22 0 -135 -62 -190 -103 -28 -22 -65 -44 -82 -50 -30 -10 -43 -20 -141 -112
-23 -22 -84 -62 -134 -88 l-91 -48 -1 45 c-3 90 -6 102 -54 215 -62 145 -106
212 -219 331 -69 72 -203 180 -224 180 -7 0 -12 5 -12 10 0 6 -7 10 -15 10 -8
0 -15 5 -15 12 0 6 -3 8 -7 5 -3 -4 -13 -1 -22 7 -39 35 -272 135 -376 162
-16 4 -34 8 -40 10 -5 1 -19 4 -30 7 -11 2 -31 7 -45 10 -81 20 -151 26 -335
26 -160 0 -177 0 -270 -14 -27 -5 -57 -9 -65 -9 -9 -1 -21 -5 -28 -10 -6 -4
-12 -5 -12 -3 0 4 -31 -3 -130 -28 -8 -2 -16 -4 -17 -5 -2 -2 -6 -3 -10 -4 -5
-1 -12 -4 -18 -7 -5 -4 -25 -10 -43 -14 -18 -3 -45 -13 -60 -20 -43 -22 -86
-38 -94 -37 -5 1 -8 -3 -8 -8 0 -6 -7 -10 -15 -10 -17 0 -55 -35 -55 -50 0
-15 84 -12 136 6 113 38 168 45 384 46 188 2 239 -1 310 -16 100 -22 118 -25
160 -32 19 -3 43 -7 52 -10 9 -3 26 -7 37 -9 12 -3 29 -7 39 -9 9 -2 38 -9 64
-15 26 -6 66 -17 91 -26 24 -8 52 -16 63 -18 10 -2 32 -9 47 -15 16 -7 32 -12
37 -12 10 0 39 -12 125 -51 28 -13 52 -22 55 -22 11 2 142 -85 192 -127 29
-24 80 -73 113 -107 53 -55 63 -72 83 -141 21 -74 30 -181 16 -195 -4 -3 -36
21 -73 53 -36 33 -70 60 -74 60 -5 0 -21 8 -35 19 -15 10 -45 29 -67 41 -144
82 -193 100 -315 116 -14 2 -50 10 -80 19 -30 8 -75 18 -99 21 -25 3 -48 7
-51 9 -4 3 -36 7 -71 10 -115 11 -145 26 -252 130 -89 86 -238 194 -259 187
-4 -1 -8 2 -8 8 0 6 -3 9 -7 8 -5 0 -15 1 -23 5 -126 47 -306 52 -490 13 -50
-11 -67 -15 -155 -40 -184 -50 -246 -98 -181 -141 18 -12 41 -14 102 -10 44 3
93 8 109 11 30 5 67 10 155 20 25 3 139 7 254 9 171 4 213 2 237 -11 16 -8 29
-12 29 -9 0 3 11 -2 25 -11 14 -9 25 -13 25 -8 0 4 27 -20 61 -54 75 -76 72
-93 -23 -112 -35 -7 -76 -16 -93 -20 -16 -5 -50 -14 -75 -21 -64 -17 -176 -56
-208 -73 -22 -11 -52 -12 -166 -4 -145 10 -158 13 -216 59 -32 25 -71 48 -197
114 -34 18 -77 37 -113 50 -34 11 -122 36 -145 40 -44 7 -68 12 -152 30 -153
33 -257 90 -372 203 -90 90 -120 131 -191 267 -29 55 -54 102 -56 104 -1 2 -7
-12 -12 -30z m1761 -995 c-6 -16 -16 -27 -89 -96 -16 -15 -34 -33 -39 -40 -78
-98 -101 -129 -123 -172 -14 -28 -27 -53 -27 -56 -1 -3 -5 -14 -9 -25 -15 -39
-19 -50 -22 -60 -1 -5 -9 -30 -17 -55 -23 -66 -55 -221 -56 -270 -1 -14 -5
-20 -9 -15 -4 6 -24 23 -45 38 -21 16 -55 45 -75 65 -46 45 -82 70 -147 100
-27 12 -57 27 -65 32 -8 6 -24 14 -35 19 -11 5 -33 23 -50 41 l-30 32 35 -7
c19 -3 43 -7 52 -9 10 -1 21 -5 24 -9 4 -4 15 -7 24 -7 9 0 55 -23 101 -50 46
-28 91 -52 101 -53 10 -2 20 -6 23 -9 4 -3 15 -4 26 -1 34 9 23 35 -33 78 -28
22 -119 75 -128 75 -6 0 -10 5 -10 10 0 6 -7 10 -15 10 -8 0 -15 4 -15 9 0 5
-11 12 -25 15 -18 5 -25 13 -25 30 0 19 19 36 98 86 53 34 133 84 177 112 80
52 243 139 280 151 11 4 40 15 65 26 59 25 92 27 83 5z m109 -1600 c16 -10 60
-95 69 -132 5 -20 11 -71 15 -112 6 -72 39 -209 53 -220 3 -3 12 -18 19 -33
l12 -28 -42 7 c-24 3 -50 8 -58 9 -8 2 -17 4 -21 4 -28 4 -159 172 -159 205 0
9 -4 16 -10 16 -5 0 -10 8 -10 18 0 10 -3 22 -7 26 -14 14 -40 114 -39 150 1
20 -2 36 -6 36 -19 0 3 33 33 49 25 14 48 18 88 14 30 -2 58 -6 63 -9z m2696
-167 c10 -39 9 -52 -7 -90 -40 -93 -164 -172 -265 -169 -34 1 -51 16 -60 54
-5 21 0 33 24 56 17 17 30 33 30 36 0 9 101 108 137 134 17 13 46 31 65 40 30
16 34 16 49 1 9 -9 21 -36 27 -62z"/>
<path d="M5002 5925 c-12 -15 -23 -39 -23 -54 -1 -14 -3 -35 -5 -46 -2 -11 -4
-37 -6 -57 -2 -21 -6 -38 -9 -38 -7 0 -8 -13 -9 -93 -1 -57 11 -89 46 -124 53
-54 241 -35 274 27 14 27 -10 36 -85 33 -81 -3 -131 11 -140 40 -14 44 -13 52
12 130 33 99 53 112 117 78 24 -12 59 -37 78 -55 38 -36 98 -128 98 -151 0
-18 16 -20 17 -2 0 6 3 35 7 63 l6 51 -64 64 c-71 72 -190 145 -252 155 -37 5
-43 3 -62 -21z"/>
<path d="M667 5737 c-47 -35 -53 -152 -17 -311 18 -82 37 -107 114 -147 77
-41 236 -20 236 31 0 27 -12 31 -98 35 -80 2 -124 18 -153 53 -26 30 -32 60
-31 141 1 62 5 78 24 98 17 19 29 22 55 18 45 -7 142 -41 162 -57 9 -7 33 -22
54 -32 20 -11 37 -23 37 -28 0 -5 4 -7 9 -4 5 4 11 1 13 -6 2 -6 12 -12 21
-14 13 -2 16 3 12 16 -3 10 -8 28 -10 40 -2 12 -9 28 -15 35 -12 14 -209 115
-232 119 -7 1 -19 5 -26 10 -23 14 -138 16 -155 3z"/>
<path d="M1748 5452 c-16 -2 -28 -8 -28 -13 0 -6 -4 -8 -9 -5 -13 8 -83 -62
-133 -134 -25 -36 -58 -78 -72 -93 -51 -55 -60 -75 -46 -101 17 -33 86 -51
190 -51 85 0 85 0 157 48 60 40 75 55 84 87 8 26 9 50 3 71 l-9 30 -63 -50
c-83 -67 -117 -84 -151 -76 -27 6 -29 14 -22 71 3 23 98 105 157 134 34 17 65
38 68 45 11 30 -49 48 -126 37z"/>
<path d="M3585 5107 c-28 -9 -45 -21 -118 -80 -32 -26 -107 -122 -107 -137 0
-5 -4 -10 -9 -10 -13 0 -76 -153 -102 -246 -42 -148 -24 -178 107 -181 47 -1
93 2 102 7 10 4 37 15 62 24 61 22 115 73 134 127 12 34 14 75 11 183 -4 136
-10 172 -22 128 -3 -12 -9 -22 -13 -22 -11 0 -32 -79 -35 -130 -6 -108 -32
-153 -109 -189 -102 -48 -161 -14 -141 82 10 43 74 177 86 177 5 0 9 6 9 14 0
19 66 84 132 129 67 45 90 90 61 118 -15 13 -24 15 -48 6z"/>
<path d="M221 5091 c-20 -13 -23 -235 -3 -293 17 -53 66 -106 107 -117 28 -7
90 0 102 13 12 11 -7 34 -34 40 -39 10 -92 53 -105 84 -12 31 -18 96 -11 122
3 10 15 22 28 28 20 9 34 6 82 -20 32 -17 69 -38 83 -48 28 -19 63 -13 73 13
8 22 -41 57 -183 127 -67 33 -123 60 -124 60 0 0 -7 -4 -15 -9z"/>
<path d="M7067 4944 c-4 -4 -81 -8 -172 -10 -171 -3 -261 -18 -310 -50 -14 -9
-25 -21 -25 -27 0 -6 -3 -7 -7 -4 -10 11 -60 -65 -65 -100 -3 -26 0 -33 16
-37 31 -8 30 -9 72 25 70 56 137 80 229 81 184 2 243 -19 214 -75 -27 -52 -84
-127 -101 -132 -10 -4 -18 -10 -18 -14 0 -7 -84 -39 -122 -47 -5 -1 -10 -3
-13 -4 -3 -1 -8 -3 -12 -5 -5 -1 -21 -7 -38 -15 l-30 -12 34 -15 c31 -13 120
-18 161 -10 74 15 154 102 237 257 44 81 48 128 16 177 -14 21 -52 31 -66 17z"/>
<path d="M5715 4705 c-103 -23 -207 -78 -250 -133 -27 -36 -27 -51 1 -58 16
-4 51 8 116 40 128 63 194 77 348 71 69 -2 134 -6 145 -8 11 -2 38 -7 60 -11
108 -20 305 -114 337 -161 4 -5 8 -6 8 -1 0 7 89 -63 125 -99 48 -47 117 -186
150 -300 42 -147 71 -229 82 -232 9 -3 11 8 9 42 -3 26 -7 49 -10 52 -2 3 -1
16 4 29 6 14 6 26 -1 29 -5 4 -7 9 -5 13 4 6 -2 42 -20 122 -3 13 -9 29 -13
35 -4 5 -13 30 -20 55 -7 25 -18 51 -23 58 -6 7 -20 30 -32 51 -45 83 -153
196 -241 252 -53 34 -229 116 -267 125 -123 29 -169 35 -318 39 -80 2 -147 -2
-185 -10z"/>
<path d="M2217 4509 c-36 -8 -78 -35 -137 -86 -14 -12 -38 -33 -55 -48 -16
-14 -67 -44 -111 -65 -104 -50 -109 -64 -43 -124 78 -70 129 -90 229 -91 78 0
91 3 154 35 91 46 113 92 49 104 -12 3 -55 -6 -96 -19 -95 -31 -139 -36 -162
-19 -17 12 -17 17 -4 41 18 36 77 93 137 133 44 30 51 31 107 25 114 -13 130
-12 131 10 1 25 -36 95 -50 96 -6 0 -20 2 -31 5 -47 10 -82 11 -118 3z"/>
<path d="M6244 4338 c-24 -24 -44 -48 -44 -55 0 -6 -6 -18 -13 -25 -24 -25
-54 -125 -56 -189 -5 -134 86 -273 171 -264 79 9 145 72 162 156 3 13 8 35 11
49 3 14 8 57 11 95 2 39 6 87 8 108 3 32 0 38 -21 43 -25 7 -67 -21 -57 -37 9
-15 13 -49 6 -49 -4 0 -6 -19 -6 -42 1 -24 -1 -47 -4 -53 -4 -5 -8 -17 -9 -26
-5 -32 -51 -120 -73 -139 -32 -27 -54 -25 -76 8 -33 48 -41 76 -39 137 2 65 7
77 70 175 45 69 65 117 58 138 -9 26 -55 12 -99 -30z"/>
<path d="M6635 3737 c-15 -23 -25 -70 -29 -143 -2 -23 -5 -45 -8 -50 -7 -13
-3 -133 6 -169 26 -104 95 -178 202 -216 84 -30 306 -36 380 -10 62 21 79 36
92 85 l11 37 -55 25 c-30 13 -54 29 -54 34 0 6 -5 10 -11 10 -17 0 -73 61 -91
100 -9 19 -22 55 -29 80 -7 25 -13 47 -14 50 -1 3 -5 19 -10 35 -7 28 -42 82
-71 113 -16 15 -46 16 -61 1 -11 -11 -3 -43 28 -114 4 -11 18 -58 30 -105 11
-47 30 -103 42 -125 19 -35 33 -50 72 -83 6 -4 33 -19 62 -33 83 -38 78 -40
-102 -44 -145 -4 -248 53 -298 164 -18 38 -22 69 -24 179 -4 174 -28 239 -68
179z"/>
<path d="M2332 3271 c-35 -18 -111 -85 -254 -222 -114 -110 -147 -139 -158
-139 -11 0 -30 25 -34 47 -10 50 -28 103 -36 108 -6 4 -8 10 -6 14 8 13 -110
64 -151 65 -21 0 -44 8 -51 16 -10 12 -12 12 -10 1 2 -10 -10 -14 -45 -15 -27
-1 -51 2 -53 6 -3 5 -11 5 -17 1 -7 -4 -61 -8 -122 -9 -60 -1 -130 -7 -155
-14 -25 -7 -52 -14 -61 -15 -42 -8 -131 -63 -207 -128 -46 -39 -65 -33 -69 22
-2 25 -8 50 -13 56 -5 7 -8 14 -5 17 3 2 -6 15 -19 27 -27 25 -21 25 -241 18
-155 -5 -176 -8 -214 -33 -54 -36 -75 -80 -65 -138 3 -17 7 -44 10 -61 3 -16
10 -50 15 -75 6 -25 12 -99 15 -165 5 -144 18 -350 28 -430 3 -22 8 -71 12
-110 3 -38 8 -79 11 -90 2 -11 6 -51 8 -90 3 -38 7 -92 10 -119 25 -249 27
-566 3 -642 -13 -43 -14 -55 -3 -82 8 -19 23 -33 37 -37 48 -10 84 -12 112 -4
16 5 52 11 79 14 28 3 54 8 57 10 6 4 131 17 168 18 29 1 44 44 39 114 -2 37
-7 75 -10 83 -15 40 -30 258 -42 606 -4 99 2 155 22 204 3 8 7 22 9 30 2 8 7
23 13 35 5 11 32 92 60 180 60 191 94 250 182 318 63 47 208 78 267 56 50 -19
87 -81 97 -164 1 -11 3 -20 5 -20 1 0 3 -9 5 -20 2 -11 6 -31 9 -45 13 -56 27
-127 30 -157 3 -18 7 -37 10 -42 4 -5 2 -12 -4 -16 -6 -4 -7 -12 -3 -18 8 -13
11 -287 3 -287 -3 0 -5 -28 -6 -63 -1 -80 -13 -332 -18 -377 -2 -19 -7 -70
-10 -112 -4 -43 -9 -88 -12 -100 -9 -50 -7 -147 5 -176 24 -57 95 -62 231 -17
116 39 95 37 317 32 93 -3 107 72 45 243 -51 141 -93 306 -107 417 -2 11 -6
29 -9 40 -15 48 -22 323 -12 429 6 63 39 181 75 272 63 158 94 188 258 251
113 42 133 41 157 -11 19 -42 43 -133 51 -193 21 -148 20 -658 -1 -757 -2 -13
-7 -41 -9 -63 -3 -22 -7 -51 -10 -65 -12 -56 -24 -128 -29 -170 -2 -25 -11
-83 -20 -130 -20 -106 -17 -181 9 -206 16 -16 32 -18 114 -17 267 5 456 15
475 25 38 19 95 81 101 110 4 15 10 28 15 28 10 0 20 37 12 45 -3 3 -7 13 -8
23 -2 19 -5 34 -28 137 -26 115 -27 127 -31 210 -4 87 -14 215 -19 255 -10 70
-18 115 -21 120 -2 3 -6 26 -10 50 -3 25 -8 52 -10 60 -2 8 -7 35 -10 60 -4
25 -13 74 -22 110 -8 36 -16 73 -19 83 -2 10 -5 26 -8 35 -3 9 -8 33 -11 52
-3 19 -8 46 -10 60 -3 14 -8 36 -10 50 -3 14 -8 43 -11 64 -8 63 -58 156 -120
221 -31 33 -68 76 -82 95 -64 88 -166 154 -309 199 -73 23 -109 24 -151 2z"/>
<path d="M1600 3170 c-9 -6 -10 -10 -3 -10 6 0 15 5 18 10 8 12 4 12 -15 0z"/>
<path d="M5825 1766 c-53 -26 -86 -53 -110 -90 -20 -30 -28 -127 -15 -176 9
-32 19 -42 73 -70 34 -18 70 -40 79 -48 31 -26 97 -20 160 16 104 60 139 158
94 266 -19 45 -28 54 -94 89 -73 40 -125 43 -187 13z"/>
<path d="M3643 1749 c-7 -7 -13 -10 -13 -6 0 10 -60 -51 -90 -93 -14 -19 -37
-48 -51 -64 -38 -45 -67 -111 -62 -140 7 -34 26 -49 103 -81 75 -31 124 -60
160 -92 23 -21 49 -28 92 -24 10 1 51 17 91 36 51 23 77 42 85 60 14 31 15 55
3 55 -11 0 -6 38 11 90 16 47 11 86 -18 138 -13 23 -24 53 -24 66 0 39 -22 49
-87 39 -47 -7 -65 -6 -88 7 -38 20 -96 25 -112 9z"/>
</g>
</svg>
